<?xml version="1.0" encoding="utf-8"?>
<svg version="1.1" xmlns:xlink="http://www.w3.org/1999/xlink" width="20px" height="20px" xmlns="http://www.w3.org/2000/svg">
  <g transform="matrix(1 0 0 1 -465 -940 )">
    <path d="M 17.0711 17.0711  C 15.1957 18.9464  12.6522 20  10 20  C 7.34784 20  4.8043 18.9464  2.92893 17.0711  C 1.05357 15.1957  0 12.6522  0 10  C 0 7.34784  1.05357 4.8043  2.92893 2.92893  C 4.8043 1.05357  7.34784 0  10 0  C 12.6522 0  15.1957 1.05357  17.0711 2.92893  C 18.9464 4.8043  20 7.34784  20 10  C 20 12.6522  18.9464 15.1957  17.0711 17.0711  Z M 4.34315 15.6569  C 5.84344 17.1571  7.87827 18  10 18  C 12.1217 18  14.1566 17.1571  15.6569 15.6569  C 17.1571 14.1566  18 12.1217  18 10  C 18 7.87827  17.1571 5.84344  15.6569 4.34315  C 14.1566 2.84285  12.1217 2  10 2  C 7.87827 2  5.84344 2.84285  4.34315 4.34315  C 2.84285 5.84344  2 7.87827  2 10  C 2 12.1217  2.84285 14.1566  4.34315 15.6569  Z M 9.2929 9.2929  C 9.4804 9.1054  9.7348 9  10 9  C 10.2652 9  10.5196 9.1054  10.7071 9.2929  C 10.8946 9.4804  11 9.7348  11 10  L 11 14  C 11 14.2652  10.8946 14.5196  10.7071 14.7071  C 10.5196 14.8946  10.2652 15  10 15  C 9.7348 15  9.4804 14.8946  9.2929 14.7071  C 9.1054 14.5196  9 14.2652  9 14  L 9 10  C 9 9.7348  9.1054 9.4804  9.2929 9.2929  Z M 9.2929 5.29289  C 9.4804 5.10536  9.7348 5  10 5  C 10.2652 5  10.5196 5.10536  10.7071 5.29289  C 10.8946 5.48043  11 5.73478  11 6  C 11 6.26522  10.8946 6.51957  10.7071 6.70711  C 10.5196 6.89464  10.2652 7  10 7  C 9.7348 7  9.4804 6.89464  9.2929 6.70711  C 9.1054 6.51957  9 6.26522  9 6  C 9 5.73478  9.1054 5.48043  9.2929 5.29289  Z " fill-rule="nonzero" fill="#616e7c" stroke="none" transform="matrix(1 0 0 1 465 940 )" />
  </g>
</svg>