<?xml version="1.0" encoding="utf-8"?>
<svg version="1.1" xmlns:xlink="http://www.w3.org/1999/xlink" width="24px" height="24px" xmlns="http://www.w3.org/2000/svg">
  <g transform="matrix(1 0 0 1 -342 -324 )">
    <path d="M 0 2.66666666666667  C 0 1.2  1.2 0  2.66666666666667 0  L 21.3333333333333 0  C 22.0405333333333 0  22.7188 0.280946666666667  23.2189333333333 0.781053333333333  C 23.7190666666667 1.28114666666667  24 1.95942666666667  24 2.66666666666667  L 24 21.3333333333333  C 24 22.0405333333333  23.7190666666667 22.7188  23.2189333333333 23.2189333333333  C 22.7188 23.7190666666667  22.0405333333333 24  21.3333333333333 24  L 2.66666666666667 24  C 1.95942666666667 24  1.28114666666667 23.7190666666667  0.781053333333333 23.2189333333333  C 0.280946666666667 22.7188  0 22.0405333333333  0 21.3333333333333  L 0 2.66666666666667  Z M 2.66666666666667 11  L 21.3333333333333 11  L 21.3333333333333 3  L 2.66666666666667 3  L 2.66666666666667 11  Z M 21.3333333333333 21  L 21.3333333333333 13  L 2.66666666666667 13  L 2.66666666666667 21  L 21.3333333333333 21  Z M 7.60948 7.60948  C 7.35942666666667 7.85952  7.02029333333333 8  6.66666666666667 8  C 6.31304 8  5.97390666666667 7.85952  5.72385333333333 7.60948  C 5.47381333333333 7.35942666666667  5.33333333333333 7.02029333333333  5.33333333333333 6.66666666666667  C 5.33333333333333 6.31304  5.47381333333333 5.97390666666667  5.72385333333333 5.72385333333333  C 5.97390666666667 5.47381333333333  6.31304 5.33333333333333  6.66666666666667 5.33333333333333  C 7.02029333333333 5.33333333333333  7.35942666666667 5.47381333333333  7.60948 5.72385333333333  C 7.85952 5.97390666666667  8 6.31304  8 6.66666666666667  C 8 7.02029333333333  7.85952 7.35942666666667  7.60948 7.60948  Z M 7.60948 18.2761333333333  C 7.35942666666667 18.5261333333333  7.02029333333333 18.6666666666667  6.66666666666667 18.6666666666667  C 6.31304 18.6666666666667  5.97390666666667 18.5261333333333  5.72385333333333 18.2761333333333  C 5.47381333333333 18.0261333333333  5.33333333333333 17.6869333333333  5.33333333333333 17.3333333333333  C 5.33333333333333 16.9797333333333  5.47381333333333 16.6405333333333  5.72385333333333 16.3905333333333  C 5.97390666666667 16.1405333333333  6.31304 16  6.66666666666667 16  C 7.02029333333333 16  7.35942666666667 16.1405333333333  7.60948 16.3905333333333  C 7.85952 16.6405333333333  8 16.9797333333333  8 17.3333333333333  C 8 17.6869333333333  7.85952 18.0261333333333  7.60948 18.2761333333333  Z " fill-rule="nonzero" fill="#9aa5b1" stroke="none" transform="matrix(1 0 0 1 342 324 )" />
  </g>
</svg>