<?xml version="1.0" encoding="utf-8"?>
<svg version="1.1" xmlns:xlink="http://www.w3.org/1999/xlink" width="19px" height="24px" xmlns="http://www.w3.org/2000/svg">
  <g transform="matrix(1 0 0 1 -1024 -324 )">
    <path d="M 4.07142857142857 5.33333333333333  C 4.07142857142857 8.27885333333333  6.50188142857143 10.6666666666667  9.5 10.6666666666667  C 12.4980642857143 10.6666666666667  14.9285714285714 8.27885333333333  14.9285714285714 5.33333333333333  C 14.9285714285714 2.38781333333333  12.4980642857143 0  9.5 0  C 6.50188142857143 0  4.07142857142857 2.38781333333333  4.07142857142857 5.33333333333333  Z M 1.35714285714286 24  C 0.607606428571428 24  0 23.4030666666667  0 22.6666666666667  C 0 17.512  4.25329928571429 13.3333333333333  9.5 13.3333333333333  C 14.7467142857143 13.3333333333333  19 17.512  19 22.6666666666667  C 19 23.4030666666667  18.3924071428571 24  17.6428571428571 24  C 16.8933071428571 24  16.2857142857143 23.4030666666667  16.2857142857143 22.6666666666667  C 16.2857142857143 18.9848  13.2476142857143 16  9.5 16  C 5.75235857142857 16  2.71428571428571 18.9848  2.71428571428571 22.6666666666667  C 2.71428571428571 23.4030666666667  2.10666571428571 24  1.35714285714286 24  Z M 6.78571428571429 5.33333333333333  C 6.78571428571429 3.86057333333333  8.0009 2.66666666666667  9.5 2.66666666666667  C 10.9991 2.66666666666667  12.2142857142857 3.86057333333333  12.2142857142857 5.33333333333333  C 12.2142857142857 6.80609333333333  10.9991 8  9.5 8  C 8.0009 8  6.78571428571429 6.80609333333333  6.78571428571429 5.33333333333333  Z " fill-rule="nonzero" fill="#9aa5b1" stroke="none" transform="matrix(1 0 0 1 1024 324 )" />
  </g>
</svg>